<mxfile host="app.diagrams.net" modified="2024-01-05T13:29:53.796Z" agent="Mozilla/5.0 (Macintosh; Intel Mac OS X 10_15_7) AppleWebKit/537.36 (KHTML, like Gecko) Chrome/120.0.0.0 Safari/537.36" etag="A5Oliie8m-Ev_sDt6DWt" version="22.1.15" type="github">
  <diagram name="Page-1" id="RwBjvzpkHHgibt-gjoze">
    <mxGraphModel dx="2363" dy="2141" grid="1" gridSize="10" guides="1" tooltips="1" connect="1" arrows="1" fold="1" page="1" pageScale="1" pageWidth="827" pageHeight="1169" math="0" shadow="0">
      <root>
        <mxCell id="0" />
        <mxCell id="1" parent="0" />
        <mxCell id="WxOcd5TwtlpuZQIKpukj-44" value="Channels" style="swimlane;whiteSpace=wrap;html=1;fillColor=#e6d0de;gradientColor=#d5739d;strokeColor=#996185;" vertex="1" parent="1">
          <mxGeometry y="720" width="1100" height="200" as="geometry" />
        </mxCell>
        <mxCell id="WxOcd5TwtlpuZQIKpukj-4" value="channel&lt;br&gt;name: Glo Bucket" style="rounded=0;whiteSpace=wrap;html=1;fillColor=#e6d0de;gradientColor=#d5739d;strokeColor=#996185;" vertex="1" parent="WxOcd5TwtlpuZQIKpukj-44">
          <mxGeometry x="320" y="100" width="120" height="60" as="geometry" />
        </mxCell>
        <mxCell id="WxOcd5TwtlpuZQIKpukj-45" value="channel&lt;br&gt;name: MTN" style="rounded=0;whiteSpace=wrap;html=1;fillColor=#e6d0de;gradientColor=#d5739d;strokeColor=#996185;" vertex="1" parent="WxOcd5TwtlpuZQIKpukj-44">
          <mxGeometry x="780" y="100" width="120" height="60" as="geometry" />
        </mxCell>
        <mxCell id="WxOcd5TwtlpuZQIKpukj-46" value="channel&lt;br&gt;name:Mobifine" style="rounded=0;whiteSpace=wrap;html=1;fillColor=#e6d0de;gradientColor=#d5739d;strokeColor=#996185;" vertex="1" parent="WxOcd5TwtlpuZQIKpukj-44">
          <mxGeometry x="930" y="100" width="120" height="60" as="geometry" />
        </mxCell>
        <mxCell id="WxOcd5TwtlpuZQIKpukj-142" value="channel&lt;br&gt;name: Glo" style="rounded=0;whiteSpace=wrap;html=1;fillColor=#e6d0de;gradientColor=#d5739d;strokeColor=#996185;" vertex="1" parent="WxOcd5TwtlpuZQIKpukj-44">
          <mxGeometry x="520" y="100" width="120" height="60" as="geometry" />
        </mxCell>
        <mxCell id="WxOcd5TwtlpuZQIKpukj-19" value="Item Center" style="swimlane;whiteSpace=wrap;html=1;fillColor=#d5e8d4;gradientColor=#97d077;strokeColor=#82b366;" vertex="1" parent="1">
          <mxGeometry y="190" width="1100" height="470" as="geometry" />
        </mxCell>
        <mxCell id="WxOcd5TwtlpuZQIKpukj-18" value="C-Item&lt;br&gt;id: C-114&lt;br&gt;channel: Glo&lt;br&gt;channel param:{&lt;br&gt;}&lt;br&gt;..." style="rounded=0;whiteSpace=wrap;html=1;fillColor=#d5e8d4;strokeColor=#82b366;" vertex="1" parent="WxOcd5TwtlpuZQIKpukj-19">
          <mxGeometry x="470" y="310" width="120" height="100" as="geometry" />
        </mxCell>
        <mxCell id="WxOcd5TwtlpuZQIKpukj-43" value="mapping" style="edgeStyle=orthogonalEdgeStyle;rounded=0;orthogonalLoop=1;jettySize=auto;html=1;entryX=0.5;entryY=0;entryDx=0;entryDy=0;fillColor=#e6d0de;gradientColor=#d5739d;strokeColor=#996185;strokeWidth=2;" edge="1" parent="WxOcd5TwtlpuZQIKpukj-19" source="WxOcd5TwtlpuZQIKpukj-27" target="WxOcd5TwtlpuZQIKpukj-42">
          <mxGeometry relative="1" as="geometry" />
        </mxCell>
        <mxCell id="WxOcd5TwtlpuZQIKpukj-27" value="S-Item&lt;br&gt;id: S-223&lt;br&gt;Data: 200M&lt;br&gt;institution: Glo" style="rounded=0;whiteSpace=wrap;html=1;fillColor=#d5e8d4;gradientColor=#97d077;strokeColor=#82b366;" vertex="1" parent="WxOcd5TwtlpuZQIKpukj-19">
          <mxGeometry x="630" y="110" width="120" height="60" as="geometry" />
        </mxCell>
        <mxCell id="WxOcd5TwtlpuZQIKpukj-40" style="rounded=0;orthogonalLoop=1;jettySize=auto;html=1;entryX=0.5;entryY=0;entryDx=0;entryDy=0;exitX=0.5;exitY=1;exitDx=0;exitDy=0;fillColor=#e6d0de;gradientColor=#d5739d;strokeColor=#996185;strokeWidth=2;" edge="1" parent="WxOcd5TwtlpuZQIKpukj-19" source="WxOcd5TwtlpuZQIKpukj-34" target="WxOcd5TwtlpuZQIKpukj-38">
          <mxGeometry relative="1" as="geometry" />
        </mxCell>
        <mxCell id="WxOcd5TwtlpuZQIKpukj-41" style="rounded=0;orthogonalLoop=1;jettySize=auto;html=1;entryX=0.5;entryY=0;entryDx=0;entryDy=0;exitX=0.5;exitY=1;exitDx=0;exitDy=0;fillColor=#e6d0de;gradientColor=#d5739d;strokeColor=#996185;strokeWidth=2;" edge="1" parent="WxOcd5TwtlpuZQIKpukj-19" source="WxOcd5TwtlpuZQIKpukj-34" target="WxOcd5TwtlpuZQIKpukj-39">
          <mxGeometry relative="1" as="geometry" />
        </mxCell>
        <mxCell id="WxOcd5TwtlpuZQIKpukj-34" value="S-Item&lt;br&gt;id: S-223&lt;br&gt;institution: MTN" style="rounded=0;whiteSpace=wrap;html=1;fillColor=#d5e8d4;gradientColor=#97d077;strokeColor=#82b366;" vertex="1" parent="WxOcd5TwtlpuZQIKpukj-19">
          <mxGeometry x="850" y="110" width="120" height="60" as="geometry" />
        </mxCell>
        <mxCell id="WxOcd5TwtlpuZQIKpukj-2" value="S-Item&lt;br&gt;id: S-221&lt;br&gt;Data: 100M&lt;br&gt;institution: Glo" style="rounded=0;whiteSpace=wrap;html=1;fillColor=#d5e8d4;gradientColor=#97d077;strokeColor=#82b366;" vertex="1" parent="WxOcd5TwtlpuZQIKpukj-19">
          <mxGeometry x="170" y="110" width="120" height="60" as="geometry" />
        </mxCell>
        <mxCell id="WxOcd5TwtlpuZQIKpukj-38" value="C-Item&lt;br&gt;id: C-116&lt;br&gt;channel: MTN&lt;br&gt;channel param:{&lt;br&gt;}&lt;br&gt;..." style="rounded=0;whiteSpace=wrap;html=1;fillColor=#d5e8d4;strokeColor=#82b366;" vertex="1" parent="WxOcd5TwtlpuZQIKpukj-19">
          <mxGeometry x="780" y="310" width="120" height="100" as="geometry" />
        </mxCell>
        <mxCell id="WxOcd5TwtlpuZQIKpukj-39" value="C-Item&lt;br&gt;id: C-117&lt;br&gt;channel: Mobifin&lt;br&gt;channel param:{&lt;br&gt;}&lt;br&gt;..." style="rounded=0;whiteSpace=wrap;html=1;fillColor=#d5e8d4;strokeColor=#82b366;" vertex="1" parent="WxOcd5TwtlpuZQIKpukj-19">
          <mxGeometry x="930" y="310" width="120" height="100" as="geometry" />
        </mxCell>
        <mxCell id="WxOcd5TwtlpuZQIKpukj-42" value="C-Item&lt;br&gt;id: C-115&lt;br&gt;channel: Glo&lt;br&gt;channel param:{&lt;br&gt;}&lt;br&gt;..." style="rounded=0;whiteSpace=wrap;html=1;fillColor=#d5e8d4;strokeColor=#82b366;" vertex="1" parent="WxOcd5TwtlpuZQIKpukj-19">
          <mxGeometry x="630" y="310" width="120" height="100" as="geometry" />
        </mxCell>
        <mxCell id="WxOcd5TwtlpuZQIKpukj-15" style="rounded=0;orthogonalLoop=1;jettySize=auto;html=1;entryX=0.5;entryY=0;entryDx=0;entryDy=0;exitX=0.5;exitY=1;exitDx=0;exitDy=0;fillColor=#dae8fc;strokeColor=#6c8ebf;strokeWidth=2;" edge="1" parent="1" source="WxOcd5TwtlpuZQIKpukj-1" target="WxOcd5TwtlpuZQIKpukj-11">
          <mxGeometry relative="1" as="geometry" />
        </mxCell>
        <mxCell id="WxOcd5TwtlpuZQIKpukj-32" value="1~n:1~n" style="edgeLabel;html=1;align=center;verticalAlign=middle;resizable=0;points=[];" vertex="1" connectable="0" parent="WxOcd5TwtlpuZQIKpukj-15">
          <mxGeometry x="-0.3003" y="1" relative="1" as="geometry">
            <mxPoint as="offset" />
          </mxGeometry>
        </mxCell>
        <mxCell id="WxOcd5TwtlpuZQIKpukj-6" style="rounded=0;orthogonalLoop=1;jettySize=auto;html=1;entryX=0.5;entryY=0;entryDx=0;entryDy=0;exitX=0.5;exitY=1;exitDx=0;exitDy=0;fillColor=#e6d0de;gradientColor=#d5739d;strokeColor=#996185;strokeWidth=2;" edge="1" parent="1" source="WxOcd5TwtlpuZQIKpukj-2" target="WxOcd5TwtlpuZQIKpukj-3">
          <mxGeometry relative="1" as="geometry" />
        </mxCell>
        <mxCell id="WxOcd5TwtlpuZQIKpukj-16" value="mapping" style="edgeLabel;html=1;align=center;verticalAlign=middle;resizable=0;points=[];" vertex="1" connectable="0" parent="WxOcd5TwtlpuZQIKpukj-6">
          <mxGeometry x="-0.0241" y="-1" relative="1" as="geometry">
            <mxPoint y="-1" as="offset" />
          </mxGeometry>
        </mxCell>
        <mxCell id="WxOcd5TwtlpuZQIKpukj-7" style="rounded=0;orthogonalLoop=1;jettySize=auto;html=1;entryX=0.5;entryY=0;entryDx=0;entryDy=0;exitX=0.5;exitY=1;exitDx=0;exitDy=0;fillColor=#e6d0de;gradientColor=#d5739d;strokeColor=#996185;strokeWidth=2;" edge="1" parent="1" source="WxOcd5TwtlpuZQIKpukj-2" target="WxOcd5TwtlpuZQIKpukj-5">
          <mxGeometry relative="1" as="geometry" />
        </mxCell>
        <mxCell id="WxOcd5TwtlpuZQIKpukj-31" value="1:1~n" style="edgeLabel;html=1;align=center;verticalAlign=middle;resizable=0;points=[];" vertex="1" connectable="0" parent="WxOcd5TwtlpuZQIKpukj-7">
          <mxGeometry x="0.0071" y="-1" relative="1" as="geometry">
            <mxPoint as="offset" />
          </mxGeometry>
        </mxCell>
        <mxCell id="WxOcd5TwtlpuZQIKpukj-9" style="rounded=0;orthogonalLoop=1;jettySize=auto;html=1;entryX=0.5;entryY=0;entryDx=0;entryDy=0;exitX=0.5;exitY=1;exitDx=0;exitDy=0;fillColor=#e6d0de;gradientColor=#d5739d;strokeColor=#996185;strokeWidth=2;" edge="1" parent="1" source="WxOcd5TwtlpuZQIKpukj-2" target="WxOcd5TwtlpuZQIKpukj-8">
          <mxGeometry relative="1" as="geometry" />
        </mxCell>
        <mxCell id="WxOcd5TwtlpuZQIKpukj-95" value="mapping &amp;amp; times" style="edgeLabel;html=1;align=center;verticalAlign=middle;resizable=0;points=[];" vertex="1" connectable="0" parent="WxOcd5TwtlpuZQIKpukj-9">
          <mxGeometry x="-0.049" y="1" relative="1" as="geometry">
            <mxPoint x="1" as="offset" />
          </mxGeometry>
        </mxCell>
        <mxCell id="WxOcd5TwtlpuZQIKpukj-12" style="rounded=0;orthogonalLoop=1;jettySize=auto;html=1;entryX=0.5;entryY=0;entryDx=0;entryDy=0;exitX=0.5;exitY=1;exitDx=0;exitDy=0;dashed=1;" edge="1" parent="1" source="WxOcd5TwtlpuZQIKpukj-3" target="WxOcd5TwtlpuZQIKpukj-4">
          <mxGeometry relative="1" as="geometry" />
        </mxCell>
        <mxCell id="WxOcd5TwtlpuZQIKpukj-17" value="mirror" style="edgeLabel;html=1;align=center;verticalAlign=middle;resizable=0;points=[];" vertex="1" connectable="0" parent="WxOcd5TwtlpuZQIKpukj-12">
          <mxGeometry x="0.0173" y="1" relative="1" as="geometry">
            <mxPoint as="offset" />
          </mxGeometry>
        </mxCell>
        <mxCell id="WxOcd5TwtlpuZQIKpukj-3" value="C-Item&lt;br&gt;id: C-111&lt;br&gt;channel：Glo Bucket&lt;br&gt;channel param:{&lt;br&gt;planid:xxxx,&lt;br&gt;bucketId:abc&lt;br&gt;}" style="rounded=0;whiteSpace=wrap;html=1;fillColor=#d5e8d4;strokeColor=#82b366;" vertex="1" parent="1">
          <mxGeometry x="20" y="500" width="120" height="130" as="geometry" />
        </mxCell>
        <mxCell id="WxOcd5TwtlpuZQIKpukj-13" style="rounded=0;orthogonalLoop=1;jettySize=auto;html=1;entryX=0.5;entryY=0;entryDx=0;entryDy=0;dashed=1;" edge="1" parent="1" source="WxOcd5TwtlpuZQIKpukj-5" target="WxOcd5TwtlpuZQIKpukj-4">
          <mxGeometry relative="1" as="geometry" />
        </mxCell>
        <mxCell id="WxOcd5TwtlpuZQIKpukj-5" value="C-Item&lt;br&gt;id: C-112&lt;br&gt;channel：Glo Bucket&lt;br&gt;channel param:{&lt;br&gt;planId:xxxx,&lt;br&gt;bucketId: def&lt;br&gt;}" style="rounded=0;whiteSpace=wrap;html=1;fillColor=#d5e8d4;strokeColor=#82b366;" vertex="1" parent="1">
          <mxGeometry x="170" y="500" width="120" height="130" as="geometry" />
        </mxCell>
        <mxCell id="WxOcd5TwtlpuZQIKpukj-14" style="rounded=0;orthogonalLoop=1;jettySize=auto;html=1;entryX=0.5;entryY=0;entryDx=0;entryDy=0;exitX=0.5;exitY=1;exitDx=0;exitDy=0;dashed=1;" edge="1" parent="1" source="WxOcd5TwtlpuZQIKpukj-8" target="WxOcd5TwtlpuZQIKpukj-4">
          <mxGeometry relative="1" as="geometry" />
        </mxCell>
        <mxCell id="WxOcd5TwtlpuZQIKpukj-8" value="C-Item&lt;br&gt;id: C-113&lt;br&gt;channel: Glo Bucket&lt;br&gt;channel param{&lt;br&gt;planId: tttt,&lt;br&gt;bucketId: ghi,&lt;br&gt;times: 2&lt;br&gt;}" style="rounded=0;whiteSpace=wrap;html=1;fillColor=#d5e8d4;strokeColor=#82b366;" vertex="1" parent="1">
          <mxGeometry x="320" y="500" width="120" height="130" as="geometry" />
        </mxCell>
        <mxCell id="WxOcd5TwtlpuZQIKpukj-20" style="rounded=0;orthogonalLoop=1;jettySize=auto;html=1;entryX=0.5;entryY=0;entryDx=0;entryDy=0;fillColor=#e6d0de;gradientColor=#d5739d;strokeColor=#996185;strokeWidth=2;" edge="1" parent="1" source="WxOcd5TwtlpuZQIKpukj-11" target="WxOcd5TwtlpuZQIKpukj-18">
          <mxGeometry relative="1" as="geometry" />
        </mxCell>
        <mxCell id="WxOcd5TwtlpuZQIKpukj-21" value="mapping" style="edgeLabel;html=1;align=center;verticalAlign=middle;resizable=0;points=[];" vertex="1" connectable="0" parent="WxOcd5TwtlpuZQIKpukj-20">
          <mxGeometry x="-0.0081" y="2" relative="1" as="geometry">
            <mxPoint y="-1" as="offset" />
          </mxGeometry>
        </mxCell>
        <mxCell id="WxOcd5TwtlpuZQIKpukj-11" value="S-Item&lt;br&gt;id: S-222&lt;br&gt;AirTime: 10H&lt;br&gt;institution: Glo" style="rounded=0;whiteSpace=wrap;html=1;fillColor=#d5e8d4;gradientColor=#97d077;strokeColor=#82b366;" vertex="1" parent="1">
          <mxGeometry x="470" y="300" width="120" height="60" as="geometry" />
        </mxCell>
        <mxCell id="WxOcd5TwtlpuZQIKpukj-24" value="Business System" style="swimlane;whiteSpace=wrap;html=1;fillColor=#fff2cc;gradientColor=#ffd966;strokeColor=#d6b656;" vertex="1" parent="1">
          <mxGeometry y="-80" width="1100" height="210" as="geometry" />
        </mxCell>
        <mxCell id="WxOcd5TwtlpuZQIKpukj-1" value="B-Item&lt;br&gt;Id：B-882&lt;br&gt;institution: Glo" style="rounded=0;whiteSpace=wrap;html=1;fillColor=#fff2cc;gradientColor=#ffd966;strokeColor=#d6b656;" vertex="1" parent="WxOcd5TwtlpuZQIKpukj-24">
          <mxGeometry x="394" y="90" width="120" height="60" as="geometry" />
        </mxCell>
        <mxCell id="WxOcd5TwtlpuZQIKpukj-23" value="B-Item&lt;br&gt;Id：B-883&lt;br&gt;institution: Glo" style="rounded=0;whiteSpace=wrap;html=1;fillColor=#fff2cc;gradientColor=#ffd966;strokeColor=#d6b656;" vertex="1" parent="WxOcd5TwtlpuZQIKpukj-24">
          <mxGeometry x="630" y="90" width="120" height="60" as="geometry" />
        </mxCell>
        <mxCell id="WxOcd5TwtlpuZQIKpukj-22" value="B-Item&lt;br&gt;Id：B-881&lt;br&gt;Institution：Glo" style="rounded=0;whiteSpace=wrap;html=1;fillColor=#fff2cc;gradientColor=#ffd966;strokeColor=#d6b656;" vertex="1" parent="WxOcd5TwtlpuZQIKpukj-24">
          <mxGeometry x="170" y="90" width="120" height="60" as="geometry" />
        </mxCell>
        <mxCell id="WxOcd5TwtlpuZQIKpukj-33" value="B-Item&lt;br&gt;Id: B-886&lt;br&gt;institution: MTN" style="rounded=0;whiteSpace=wrap;html=1;fillColor=#fff2cc;gradientColor=#ffd966;strokeColor=#d6b656;" vertex="1" parent="WxOcd5TwtlpuZQIKpukj-24">
          <mxGeometry x="850" y="90" width="120" height="60" as="geometry" />
        </mxCell>
        <mxCell id="WxOcd5TwtlpuZQIKpukj-25" style="rounded=0;orthogonalLoop=1;jettySize=auto;html=1;entryX=0.5;entryY=0;entryDx=0;entryDy=0;exitX=0.5;exitY=1;exitDx=0;exitDy=0;fillColor=#dae8fc;strokeColor=#6c8ebf;strokeWidth=2;" edge="1" parent="1" source="WxOcd5TwtlpuZQIKpukj-22" target="WxOcd5TwtlpuZQIKpukj-2">
          <mxGeometry relative="1" as="geometry" />
        </mxCell>
        <mxCell id="WxOcd5TwtlpuZQIKpukj-30" value="compose" style="edgeLabel;html=1;align=center;verticalAlign=middle;resizable=0;points=[];" vertex="1" connectable="0" parent="WxOcd5TwtlpuZQIKpukj-25">
          <mxGeometry x="-0.2375" y="-1" relative="1" as="geometry">
            <mxPoint x="31" y="2" as="offset" />
          </mxGeometry>
        </mxCell>
        <mxCell id="WxOcd5TwtlpuZQIKpukj-26" style="rounded=0;orthogonalLoop=1;jettySize=auto;html=1;entryX=0.5;entryY=0;entryDx=0;entryDy=0;exitX=0.5;exitY=1;exitDx=0;exitDy=0;fillColor=#dae8fc;strokeColor=#6c8ebf;strokeWidth=2;" edge="1" parent="1" source="WxOcd5TwtlpuZQIKpukj-23" target="WxOcd5TwtlpuZQIKpukj-11">
          <mxGeometry relative="1" as="geometry" />
        </mxCell>
        <mxCell id="WxOcd5TwtlpuZQIKpukj-29" value="compose" style="edgeLabel;html=1;align=center;verticalAlign=middle;resizable=0;points=[];" vertex="1" connectable="0" parent="WxOcd5TwtlpuZQIKpukj-26">
          <mxGeometry x="-0.2342" y="-2" relative="1" as="geometry">
            <mxPoint x="-27" as="offset" />
          </mxGeometry>
        </mxCell>
        <mxCell id="WxOcd5TwtlpuZQIKpukj-28" style="rounded=0;orthogonalLoop=1;jettySize=auto;html=1;entryX=0.5;entryY=0;entryDx=0;entryDy=0;fillColor=#dae8fc;strokeColor=#6c8ebf;strokeWidth=2;" edge="1" parent="1" source="WxOcd5TwtlpuZQIKpukj-23" target="WxOcd5TwtlpuZQIKpukj-27">
          <mxGeometry relative="1" as="geometry" />
        </mxCell>
        <mxCell id="WxOcd5TwtlpuZQIKpukj-36" style="rounded=0;orthogonalLoop=1;jettySize=auto;html=1;entryX=0.5;entryY=0;entryDx=0;entryDy=0;fillColor=#dae8fc;strokeColor=#6c8ebf;strokeWidth=2;" edge="1" parent="1" target="WxOcd5TwtlpuZQIKpukj-34">
          <mxGeometry relative="1" as="geometry">
            <mxPoint x="910" y="70" as="sourcePoint" />
          </mxGeometry>
        </mxCell>
        <mxCell id="WxOcd5TwtlpuZQIKpukj-47" style="edgeStyle=orthogonalEdgeStyle;rounded=0;orthogonalLoop=1;jettySize=auto;html=1;entryX=0.5;entryY=0;entryDx=0;entryDy=0;dashed=1;" edge="1" parent="1" source="WxOcd5TwtlpuZQIKpukj-38" target="WxOcd5TwtlpuZQIKpukj-45">
          <mxGeometry relative="1" as="geometry" />
        </mxCell>
        <mxCell id="WxOcd5TwtlpuZQIKpukj-48" style="edgeStyle=orthogonalEdgeStyle;rounded=0;orthogonalLoop=1;jettySize=auto;html=1;entryX=0.5;entryY=0;entryDx=0;entryDy=0;dashed=1;" edge="1" parent="1" source="WxOcd5TwtlpuZQIKpukj-39" target="WxOcd5TwtlpuZQIKpukj-46">
          <mxGeometry relative="1" as="geometry" />
        </mxCell>
        <mxCell id="WxOcd5TwtlpuZQIKpukj-49" style="rounded=0;orthogonalLoop=1;jettySize=auto;html=1;entryX=0.5;entryY=0;entryDx=0;entryDy=0;exitX=0.5;exitY=1;exitDx=0;exitDy=0;dashed=1;" edge="1" parent="1" source="WxOcd5TwtlpuZQIKpukj-18" target="WxOcd5TwtlpuZQIKpukj-4">
          <mxGeometry relative="1" as="geometry" />
        </mxCell>
        <mxCell id="WxOcd5TwtlpuZQIKpukj-50" style="rounded=0;orthogonalLoop=1;jettySize=auto;html=1;entryX=0.5;entryY=0;entryDx=0;entryDy=0;exitX=0.5;exitY=1;exitDx=0;exitDy=0;dashed=1;" edge="1" parent="1" source="WxOcd5TwtlpuZQIKpukj-42" target="WxOcd5TwtlpuZQIKpukj-142">
          <mxGeometry relative="1" as="geometry" />
        </mxCell>
        <mxCell id="WxOcd5TwtlpuZQIKpukj-51" value="Business System" style="swimlane;whiteSpace=wrap;html=1;fillColor=#fff2cc;gradientColor=#ffd966;strokeColor=#d6b656;" vertex="1" parent="1">
          <mxGeometry x="1241" y="-80" width="630" height="210" as="geometry" />
        </mxCell>
        <mxCell id="WxOcd5TwtlpuZQIKpukj-56" value="Create/Edit B-Item" style="rounded=0;whiteSpace=wrap;html=1;fillColor=#fff2cc;strokeColor=#d6b656;" vertex="1" parent="WxOcd5TwtlpuZQIKpukj-51">
          <mxGeometry x="39" y="40" width="120" height="60" as="geometry" />
        </mxCell>
        <mxCell id="WxOcd5TwtlpuZQIKpukj-57" value="On/Off shelf" style="rounded=0;whiteSpace=wrap;html=1;fillColor=#fff2cc;strokeColor=#d6b656;" vertex="1" parent="WxOcd5TwtlpuZQIKpukj-51">
          <mxGeometry x="39" y="120" width="120" height="60" as="geometry" />
        </mxCell>
        <mxCell id="WxOcd5TwtlpuZQIKpukj-58" value="Compose Standard Items as &lt;br&gt;Business Item" style="rounded=0;whiteSpace=wrap;html=1;fillColor=#fff2cc;strokeColor=#d6b656;" vertex="1" parent="WxOcd5TwtlpuZQIKpukj-51">
          <mxGeometry x="199" y="40" width="120" height="60" as="geometry" />
        </mxCell>
        <mxCell id="WxOcd5TwtlpuZQIKpukj-112" value="B-Item Stock Manage" style="rounded=0;whiteSpace=wrap;html=1;fillColor=#fff2cc;strokeColor=#d6b656;" vertex="1" parent="WxOcd5TwtlpuZQIKpukj-51">
          <mxGeometry x="199" y="120" width="120" height="60" as="geometry" />
        </mxCell>
        <mxCell id="WxOcd5TwtlpuZQIKpukj-114" value="..." style="rounded=0;whiteSpace=wrap;html=1;fillColor=#fff2cc;strokeColor=#d6b656;" vertex="1" parent="WxOcd5TwtlpuZQIKpukj-51">
          <mxGeometry x="349" y="120" width="120" height="60" as="geometry" />
        </mxCell>
        <mxCell id="WxOcd5TwtlpuZQIKpukj-59" value="Item Center" style="swimlane;whiteSpace=wrap;html=1;fillColor=#d5e8d4;gradientColor=#97d077;strokeColor=#82b366;" vertex="1" parent="1">
          <mxGeometry x="1241" y="190" width="630" height="470" as="geometry" />
        </mxCell>
        <mxCell id="WxOcd5TwtlpuZQIKpukj-60" value="Create/Edit S-Item" style="rounded=0;whiteSpace=wrap;html=1;fillColor=#d5e8d4;strokeColor=#82b366;" vertex="1" parent="WxOcd5TwtlpuZQIKpukj-59">
          <mxGeometry x="70" y="50" width="120" height="60" as="geometry" />
        </mxCell>
        <mxCell id="WxOcd5TwtlpuZQIKpukj-61" value="On/Off Shelf for S-Item&lt;br&gt;(manual/auto)" style="rounded=0;whiteSpace=wrap;html=1;fillColor=#d5e8d4;strokeColor=#82b366;" vertex="1" parent="WxOcd5TwtlpuZQIKpukj-59">
          <mxGeometry x="250" y="50" width="130" height="60" as="geometry" />
        </mxCell>
        <mxCell id="WxOcd5TwtlpuZQIKpukj-62" value="Merge C-Item to Same S-Item" style="rounded=0;whiteSpace=wrap;html=1;fillColor=#d5e8d4;strokeColor=#82b366;" vertex="1" parent="WxOcd5TwtlpuZQIKpukj-59">
          <mxGeometry x="70" y="160" width="120" height="60" as="geometry" />
        </mxCell>
        <mxCell id="WxOcd5TwtlpuZQIKpukj-63" value="Get S-Item Stock" style="rounded=0;whiteSpace=wrap;html=1;fillColor=#d5e8d4;strokeColor=#82b366;" vertex="1" parent="WxOcd5TwtlpuZQIKpukj-59">
          <mxGeometry x="70" y="270" width="120" height="60" as="geometry" />
        </mxCell>
        <mxCell id="WxOcd5TwtlpuZQIKpukj-64" value="Get C-Item Stock" style="rounded=0;whiteSpace=wrap;html=1;fillColor=#d5e8d4;strokeColor=#82b366;" vertex="1" parent="WxOcd5TwtlpuZQIKpukj-59">
          <mxGeometry x="255" y="270" width="120" height="60" as="geometry" />
        </mxCell>
        <mxCell id="WxOcd5TwtlpuZQIKpukj-65" value="Sync C-Item" style="rounded=0;whiteSpace=wrap;html=1;fillColor=#d5e8d4;strokeColor=#82b366;" vertex="1" parent="WxOcd5TwtlpuZQIKpukj-59">
          <mxGeometry x="70" y="380" width="120" height="60" as="geometry" />
        </mxCell>
        <mxCell id="WxOcd5TwtlpuZQIKpukj-113" value="..." style="rounded=0;whiteSpace=wrap;html=1;fillColor=#d5e8d4;strokeColor=#82b366;" vertex="1" parent="WxOcd5TwtlpuZQIKpukj-59">
          <mxGeometry x="255" y="380" width="120" height="60" as="geometry" />
        </mxCell>
        <mxCell id="WxOcd5TwtlpuZQIKpukj-66" value="Business Item&lt;br&gt;For Salling&lt;br&gt;(B-Item)" style="rounded=0;whiteSpace=wrap;html=1;fillColor=#fff2cc;gradientColor=#ffd966;strokeColor=#d6b656;" vertex="1" parent="1">
          <mxGeometry x="-200" y="-80" width="120" height="60" as="geometry" />
        </mxCell>
        <mxCell id="WxOcd5TwtlpuZQIKpukj-67" value="Standard Item&lt;br&gt;For Route&lt;br&gt;(S-Item)" style="rounded=0;whiteSpace=wrap;html=1;fillColor=#d5e8d4;gradientColor=#97d077;strokeColor=#82b366;" vertex="1" parent="1">
          <mxGeometry x="-200" y="20" width="120" height="60" as="geometry" />
        </mxCell>
        <mxCell id="WxOcd5TwtlpuZQIKpukj-68" value="Channel Item&lt;br&gt;For Interact with Channel&lt;br&gt;(C-Item)" style="rounded=0;whiteSpace=wrap;html=1;fillColor=#d5e8d4;strokeColor=#82b366;" vertex="1" parent="1">
          <mxGeometry x="-200" y="150" width="120" height="100" as="geometry" />
        </mxCell>
        <mxCell id="WxOcd5TwtlpuZQIKpukj-69" value="" style="endArrow=classic;html=1;rounded=0;fillColor=#dae8fc;gradientColor=#7ea6e0;strokeColor=#6c8ebf;strokeWidth=2;" edge="1" parent="1">
          <mxGeometry width="50" height="50" relative="1" as="geometry">
            <mxPoint x="-195" y="310" as="sourcePoint" />
            <mxPoint x="-85" y="310" as="targetPoint" />
          </mxGeometry>
        </mxCell>
        <mxCell id="WxOcd5TwtlpuZQIKpukj-70" value="compose" style="edgeLabel;html=1;align=center;verticalAlign=middle;resizable=0;points=[];" vertex="1" connectable="0" parent="WxOcd5TwtlpuZQIKpukj-69">
          <mxGeometry x="0.3712" relative="1" as="geometry">
            <mxPoint x="-25" y="-10" as="offset" />
          </mxGeometry>
        </mxCell>
        <mxCell id="WxOcd5TwtlpuZQIKpukj-71" value="" style="endArrow=classic;html=1;rounded=0;fillColor=#e6d0de;gradientColor=#d5739d;strokeColor=#996185;strokeWidth=2;" edge="1" parent="1">
          <mxGeometry width="50" height="50" relative="1" as="geometry">
            <mxPoint x="-195" y="380" as="sourcePoint" />
            <mxPoint x="-85" y="380" as="targetPoint" />
          </mxGeometry>
        </mxCell>
        <mxCell id="WxOcd5TwtlpuZQIKpukj-72" value="mapping" style="edgeLabel;html=1;align=center;verticalAlign=middle;resizable=0;points=[];" vertex="1" connectable="0" parent="WxOcd5TwtlpuZQIKpukj-71">
          <mxGeometry x="0.3712" relative="1" as="geometry">
            <mxPoint x="-25" y="-10" as="offset" />
          </mxGeometry>
        </mxCell>
        <mxCell id="WxOcd5TwtlpuZQIKpukj-73" value="Business System" style="swimlane;whiteSpace=wrap;html=1;fillColor=#fff2cc;gradientColor=#ffd966;strokeColor=#d6b656;" vertex="1" parent="1">
          <mxGeometry y="1120" width="200" height="160" as="geometry" />
        </mxCell>
        <mxCell id="WxOcd5TwtlpuZQIKpukj-74" value="B-Item&lt;br&gt;Data: 100M&lt;br&gt;Id：B-881&lt;br&gt;Institution：Glo" style="rounded=0;whiteSpace=wrap;html=1;fillColor=#fff2cc;gradientColor=#ffd966;strokeColor=#d6b656;" vertex="1" parent="WxOcd5TwtlpuZQIKpukj-73">
          <mxGeometry x="40" y="60" width="120" height="60" as="geometry" />
        </mxCell>
        <mxCell id="WxOcd5TwtlpuZQIKpukj-75" value="Item Center" style="swimlane;whiteSpace=wrap;html=1;fillColor=#d5e8d4;gradientColor=#97d077;strokeColor=#82b366;" vertex="1" parent="1">
          <mxGeometry y="1320" width="200" height="280" as="geometry" />
        </mxCell>
        <mxCell id="WxOcd5TwtlpuZQIKpukj-82" style="edgeStyle=orthogonalEdgeStyle;rounded=0;orthogonalLoop=1;jettySize=auto;html=1;entryX=0.5;entryY=0;entryDx=0;entryDy=0;" edge="1" parent="WxOcd5TwtlpuZQIKpukj-75" source="WxOcd5TwtlpuZQIKpukj-76" target="WxOcd5TwtlpuZQIKpukj-81">
          <mxGeometry relative="1" as="geometry" />
        </mxCell>
        <mxCell id="WxOcd5TwtlpuZQIKpukj-76" value="S-Item&lt;br&gt;id: S-221&lt;br&gt;Data: 100M&lt;br&gt;institution: Glo" style="rounded=0;whiteSpace=wrap;html=1;fillColor=#d5e8d4;gradientColor=#97d077;strokeColor=#82b366;" vertex="1" parent="WxOcd5TwtlpuZQIKpukj-75">
          <mxGeometry x="40" y="40" width="120" height="60" as="geometry" />
        </mxCell>
        <mxCell id="WxOcd5TwtlpuZQIKpukj-81" value="C-Item&lt;br&gt;iid: C-111&lt;br&gt;channel：Glo Bucket&lt;br&gt;channel param:{&lt;br&gt;planid:xxxx,&lt;br&gt;bucketId:abc&lt;br&gt;}" style="rounded=0;whiteSpace=wrap;html=1;fillColor=#d5e8d4;strokeColor=#82b366;" vertex="1" parent="WxOcd5TwtlpuZQIKpukj-75">
          <mxGeometry x="40" y="160" width="120" height="100" as="geometry" />
        </mxCell>
        <mxCell id="WxOcd5TwtlpuZQIKpukj-77" value="Channel" style="swimlane;whiteSpace=wrap;html=1;fillColor=#e6d0de;gradientColor=#d5739d;strokeColor=#996185;" vertex="1" parent="1">
          <mxGeometry y="1640" width="200" height="200" as="geometry" />
        </mxCell>
        <mxCell id="WxOcd5TwtlpuZQIKpukj-78" value="channel&lt;br&gt;name: Glo Bucket" style="rounded=0;whiteSpace=wrap;html=1;fillColor=#e6d0de;gradientColor=#d5739d;strokeColor=#996185;" vertex="1" parent="WxOcd5TwtlpuZQIKpukj-77">
          <mxGeometry x="40" y="84" width="120" height="60" as="geometry" />
        </mxCell>
        <mxCell id="WxOcd5TwtlpuZQIKpukj-79" style="edgeStyle=orthogonalEdgeStyle;rounded=0;orthogonalLoop=1;jettySize=auto;html=1;entryX=0.5;entryY=0;entryDx=0;entryDy=0;" edge="1" parent="1" source="WxOcd5TwtlpuZQIKpukj-74" target="WxOcd5TwtlpuZQIKpukj-76">
          <mxGeometry relative="1" as="geometry" />
        </mxCell>
        <mxCell id="WxOcd5TwtlpuZQIKpukj-83" style="edgeStyle=orthogonalEdgeStyle;rounded=0;orthogonalLoop=1;jettySize=auto;html=1;entryX=0.5;entryY=0;entryDx=0;entryDy=0;" edge="1" parent="1" source="WxOcd5TwtlpuZQIKpukj-81" target="WxOcd5TwtlpuZQIKpukj-78">
          <mxGeometry relative="1" as="geometry" />
        </mxCell>
        <mxCell id="WxOcd5TwtlpuZQIKpukj-84" value="Business System" style="swimlane;whiteSpace=wrap;html=1;fillColor=#fff2cc;gradientColor=#ffd966;strokeColor=#d6b656;" vertex="1" parent="1">
          <mxGeometry x="1980" y="-80" width="620" height="210" as="geometry" />
        </mxCell>
        <mxCell id="WxOcd5TwtlpuZQIKpukj-88" value="Business Order&lt;br&gt;B-Item: B-881" style="rounded=0;whiteSpace=wrap;html=1;fillColor=#fff2cc;strokeColor=#d6b656;" vertex="1" parent="WxOcd5TwtlpuZQIKpukj-84">
          <mxGeometry x="70" y="90" width="120" height="60" as="geometry" />
        </mxCell>
        <mxCell id="WxOcd5TwtlpuZQIKpukj-92" value="Business Order&lt;br&gt;B-Item: B-883" style="rounded=0;whiteSpace=wrap;html=1;fillColor=#fff2cc;strokeColor=#d6b656;" vertex="1" parent="WxOcd5TwtlpuZQIKpukj-84">
          <mxGeometry x="280" y="90" width="120" height="60" as="geometry" />
        </mxCell>
        <mxCell id="WxOcd5TwtlpuZQIKpukj-89" value="Pay-Route" style="swimlane;whiteSpace=wrap;html=1;fillColor=#d5e8d4;gradientColor=#97d077;strokeColor=#82b366;" vertex="1" parent="1">
          <mxGeometry x="1980" y="190" width="620" height="250" as="geometry" />
        </mxCell>
        <mxCell id="WxOcd5TwtlpuZQIKpukj-90" value="Route Order&lt;br&gt;S-Item: S-221" style="rounded=0;whiteSpace=wrap;html=1;fillColor=#d5e8d4;strokeColor=#82b366;" vertex="1" parent="WxOcd5TwtlpuZQIKpukj-89">
          <mxGeometry x="70" y="100" width="120" height="60" as="geometry" />
        </mxCell>
        <mxCell id="WxOcd5TwtlpuZQIKpukj-93" value="Route Order&lt;br&gt;S-Item: S-222" style="rounded=0;whiteSpace=wrap;html=1;fillColor=#d5e8d4;strokeColor=#82b366;" vertex="1" parent="WxOcd5TwtlpuZQIKpukj-89">
          <mxGeometry x="280" y="100" width="120" height="60" as="geometry" />
        </mxCell>
        <mxCell id="WxOcd5TwtlpuZQIKpukj-94" value="Route Order&lt;br&gt;S-Item: S-223" style="rounded=0;whiteSpace=wrap;html=1;fillColor=#d5e8d4;strokeColor=#82b366;" vertex="1" parent="WxOcd5TwtlpuZQIKpukj-89">
          <mxGeometry x="460" y="100" width="120" height="60" as="geometry" />
        </mxCell>
        <mxCell id="WxOcd5TwtlpuZQIKpukj-91" style="edgeStyle=orthogonalEdgeStyle;rounded=0;orthogonalLoop=1;jettySize=auto;html=1;entryX=0.5;entryY=0;entryDx=0;entryDy=0;" edge="1" parent="1" source="WxOcd5TwtlpuZQIKpukj-88" target="WxOcd5TwtlpuZQIKpukj-90">
          <mxGeometry relative="1" as="geometry" />
        </mxCell>
        <mxCell id="WxOcd5TwtlpuZQIKpukj-96" style="rounded=0;orthogonalLoop=1;jettySize=auto;html=1;entryX=0.5;entryY=0;entryDx=0;entryDy=0;" edge="1" parent="1" source="WxOcd5TwtlpuZQIKpukj-92" target="WxOcd5TwtlpuZQIKpukj-93">
          <mxGeometry relative="1" as="geometry" />
        </mxCell>
        <mxCell id="WxOcd5TwtlpuZQIKpukj-111" value="split for fulfilling&amp;nbsp;" style="edgeLabel;html=1;align=center;verticalAlign=middle;resizable=0;points=[];" vertex="1" connectable="0" parent="WxOcd5TwtlpuZQIKpukj-96">
          <mxGeometry x="-0.1759" y="-1" relative="1" as="geometry">
            <mxPoint as="offset" />
          </mxGeometry>
        </mxCell>
        <mxCell id="WxOcd5TwtlpuZQIKpukj-97" style="rounded=0;orthogonalLoop=1;jettySize=auto;html=1;entryX=0.5;entryY=0;entryDx=0;entryDy=0;exitX=0.5;exitY=1;exitDx=0;exitDy=0;" edge="1" parent="1" source="WxOcd5TwtlpuZQIKpukj-92" target="WxOcd5TwtlpuZQIKpukj-94">
          <mxGeometry relative="1" as="geometry" />
        </mxCell>
        <mxCell id="WxOcd5TwtlpuZQIKpukj-98" value="Channel" style="swimlane;whiteSpace=wrap;html=1;fillColor=#e6d0de;gradientColor=#d5739d;strokeColor=#996185;" vertex="1" parent="1">
          <mxGeometry x="1980" y="490" width="620" height="170" as="geometry" />
        </mxCell>
        <mxCell id="WxOcd5TwtlpuZQIKpukj-99" value="Channel Order&lt;br&gt;Channel: Glo Bucket&lt;br&gt;C-Item: C-111" style="rounded=0;whiteSpace=wrap;html=1;fillColor=#e1d5e7;strokeColor=#9673a6;" vertex="1" parent="WxOcd5TwtlpuZQIKpukj-98">
          <mxGeometry x="23.5" y="65" width="120" height="60" as="geometry" />
        </mxCell>
        <mxCell id="WxOcd5TwtlpuZQIKpukj-101" value="Channel Order&lt;br&gt;Channel: Glo Bucket&lt;br&gt;C-Item: C-112" style="rounded=0;whiteSpace=wrap;html=1;fillColor=#e1d5e7;strokeColor=#9673a6;dashed=1;" vertex="1" parent="WxOcd5TwtlpuZQIKpukj-98">
          <mxGeometry x="174.5" y="65" width="120" height="60" as="geometry" />
        </mxCell>
        <mxCell id="WxOcd5TwtlpuZQIKpukj-104" value="Channel Order&lt;br&gt;Channel: MTN&lt;br&gt;C-Item: C-116" style="rounded=0;whiteSpace=wrap;html=1;fillColor=#e1d5e7;strokeColor=#9673a6;" vertex="1" parent="WxOcd5TwtlpuZQIKpukj-98">
          <mxGeometry x="326.5" y="65" width="120" height="60" as="geometry" />
        </mxCell>
        <mxCell id="WxOcd5TwtlpuZQIKpukj-106" value="Channel Order&lt;br style=&quot;border-color: var(--border-color);&quot;&gt;Channel:Mobifin&lt;br style=&quot;border-color: var(--border-color);&quot;&gt;C-Item: C-117" style="rounded=0;whiteSpace=wrap;html=1;fillColor=#e1d5e7;strokeColor=#9673a6;dashed=1;" vertex="1" parent="WxOcd5TwtlpuZQIKpukj-98">
          <mxGeometry x="476.5" y="65" width="120" height="60" as="geometry" />
        </mxCell>
        <mxCell id="WxOcd5TwtlpuZQIKpukj-100" style="rounded=0;orthogonalLoop=1;jettySize=auto;html=1;entryX=0.5;entryY=0;entryDx=0;entryDy=0;exitX=0.5;exitY=1;exitDx=0;exitDy=0;" edge="1" parent="1" source="WxOcd5TwtlpuZQIKpukj-90" target="WxOcd5TwtlpuZQIKpukj-99">
          <mxGeometry relative="1" as="geometry" />
        </mxCell>
        <mxCell id="WxOcd5TwtlpuZQIKpukj-102" style="rounded=0;orthogonalLoop=1;jettySize=auto;html=1;entryX=0.5;entryY=0;entryDx=0;entryDy=0;exitX=0.5;exitY=1;exitDx=0;exitDy=0;dashed=1;" edge="1" parent="1" source="WxOcd5TwtlpuZQIKpukj-90" target="WxOcd5TwtlpuZQIKpukj-101">
          <mxGeometry relative="1" as="geometry" />
        </mxCell>
        <mxCell id="WxOcd5TwtlpuZQIKpukj-110" value="C-Item ReRoute" style="edgeLabel;html=1;align=center;verticalAlign=middle;resizable=0;points=[];" vertex="1" connectable="0" parent="WxOcd5TwtlpuZQIKpukj-102">
          <mxGeometry x="0.032" y="-1" relative="1" as="geometry">
            <mxPoint as="offset" />
          </mxGeometry>
        </mxCell>
        <mxCell id="WxOcd5TwtlpuZQIKpukj-107" style="rounded=0;orthogonalLoop=1;jettySize=auto;html=1;entryX=0.5;entryY=0;entryDx=0;entryDy=0;dashed=1;" edge="1" parent="1" source="WxOcd5TwtlpuZQIKpukj-94" target="WxOcd5TwtlpuZQIKpukj-106">
          <mxGeometry relative="1" as="geometry" />
        </mxCell>
        <mxCell id="WxOcd5TwtlpuZQIKpukj-109" value="Channel ReRoute" style="edgeLabel;html=1;align=center;verticalAlign=middle;resizable=0;points=[];" vertex="1" connectable="0" parent="WxOcd5TwtlpuZQIKpukj-107">
          <mxGeometry x="-0.0642" y="2" relative="1" as="geometry">
            <mxPoint as="offset" />
          </mxGeometry>
        </mxCell>
        <mxCell id="WxOcd5TwtlpuZQIKpukj-108" style="rounded=0;orthogonalLoop=1;jettySize=auto;html=1;entryX=0.5;entryY=0;entryDx=0;entryDy=0;exitX=0.5;exitY=1;exitDx=0;exitDy=0;" edge="1" parent="1" source="WxOcd5TwtlpuZQIKpukj-94" target="WxOcd5TwtlpuZQIKpukj-104">
          <mxGeometry relative="1" as="geometry" />
        </mxCell>
        <mxCell id="WxOcd5TwtlpuZQIKpukj-115" value="Business System" style="swimlane;whiteSpace=wrap;html=1;fillColor=#fff2cc;gradientColor=#ffd966;strokeColor=#d6b656;" vertex="1" parent="1">
          <mxGeometry x="396.5" y="1120" width="200" height="160" as="geometry" />
        </mxCell>
        <mxCell id="WxOcd5TwtlpuZQIKpukj-116" value="B-Item&lt;br&gt;Data: 100M&lt;br&gt;Id：B-881&lt;br&gt;Institution：Glo" style="rounded=0;whiteSpace=wrap;html=1;fillColor=#fff2cc;gradientColor=#ffd966;strokeColor=#d6b656;" vertex="1" parent="WxOcd5TwtlpuZQIKpukj-115">
          <mxGeometry x="40" y="60" width="120" height="60" as="geometry" />
        </mxCell>
        <mxCell id="WxOcd5TwtlpuZQIKpukj-117" value="Item Center" style="swimlane;whiteSpace=wrap;html=1;fillColor=#d5e8d4;gradientColor=#97d077;strokeColor=#82b366;" vertex="1" parent="1">
          <mxGeometry x="313" y="1320" width="367" height="280" as="geometry" />
        </mxCell>
        <mxCell id="WxOcd5TwtlpuZQIKpukj-118" style="edgeStyle=orthogonalEdgeStyle;rounded=0;orthogonalLoop=1;jettySize=auto;html=1;entryX=0.5;entryY=0;entryDx=0;entryDy=0;" edge="1" parent="WxOcd5TwtlpuZQIKpukj-117" source="WxOcd5TwtlpuZQIKpukj-119" target="WxOcd5TwtlpuZQIKpukj-120">
          <mxGeometry relative="1" as="geometry" />
        </mxCell>
        <mxCell id="WxOcd5TwtlpuZQIKpukj-126" style="edgeStyle=orthogonalEdgeStyle;rounded=0;orthogonalLoop=1;jettySize=auto;html=1;entryX=0.5;entryY=0;entryDx=0;entryDy=0;" edge="1" parent="WxOcd5TwtlpuZQIKpukj-117" source="WxOcd5TwtlpuZQIKpukj-119" target="WxOcd5TwtlpuZQIKpukj-125">
          <mxGeometry relative="1" as="geometry" />
        </mxCell>
        <mxCell id="WxOcd5TwtlpuZQIKpukj-119" value="S-Item&lt;br&gt;id: S-221&lt;br&gt;Data: 100M&lt;br&gt;institution: Glo" style="rounded=0;whiteSpace=wrap;html=1;fillColor=#d5e8d4;gradientColor=#97d077;strokeColor=#82b366;" vertex="1" parent="WxOcd5TwtlpuZQIKpukj-117">
          <mxGeometry x="123.5" y="40" width="120" height="60" as="geometry" />
        </mxCell>
        <mxCell id="WxOcd5TwtlpuZQIKpukj-120" value="C-Item&lt;br&gt;iid: C-111&lt;br&gt;channel：Glo Bucket&lt;br&gt;channel param:{&lt;br&gt;planid:xxxx,&lt;br&gt;bucketId:abc&lt;br&gt;}" style="rounded=0;whiteSpace=wrap;html=1;fillColor=#d5e8d4;strokeColor=#82b366;" vertex="1" parent="WxOcd5TwtlpuZQIKpukj-117">
          <mxGeometry x="40" y="160" width="120" height="100" as="geometry" />
        </mxCell>
        <mxCell id="WxOcd5TwtlpuZQIKpukj-125" value="C-Item&lt;br&gt;iid: C-112&lt;br&gt;channel：Glo Bucket&lt;br&gt;channel param:{&lt;br&gt;planid:xxxx,&lt;br&gt;bucketId:abc&lt;br&gt;}" style="rounded=0;whiteSpace=wrap;html=1;fillColor=#d5e8d4;strokeColor=#82b366;" vertex="1" parent="WxOcd5TwtlpuZQIKpukj-117">
          <mxGeometry x="207" y="160" width="120" height="100" as="geometry" />
        </mxCell>
        <mxCell id="WxOcd5TwtlpuZQIKpukj-121" value="Channel" style="swimlane;whiteSpace=wrap;html=1;fillColor=#e6d0de;gradientColor=#d5739d;strokeColor=#996185;" vertex="1" parent="1">
          <mxGeometry x="313" y="1640" width="367" height="200" as="geometry" />
        </mxCell>
        <mxCell id="WxOcd5TwtlpuZQIKpukj-122" value="channel&lt;br&gt;name: Glo Bucket" style="rounded=0;whiteSpace=wrap;html=1;fillColor=#e6d0de;gradientColor=#d5739d;strokeColor=#996185;" vertex="1" parent="WxOcd5TwtlpuZQIKpukj-121">
          <mxGeometry x="130" y="84" width="120" height="60" as="geometry" />
        </mxCell>
        <mxCell id="WxOcd5TwtlpuZQIKpukj-123" style="edgeStyle=orthogonalEdgeStyle;rounded=0;orthogonalLoop=1;jettySize=auto;html=1;entryX=0.5;entryY=0;entryDx=0;entryDy=0;" edge="1" parent="1" source="WxOcd5TwtlpuZQIKpukj-116" target="WxOcd5TwtlpuZQIKpukj-119">
          <mxGeometry relative="1" as="geometry" />
        </mxCell>
        <mxCell id="WxOcd5TwtlpuZQIKpukj-124" style="rounded=0;orthogonalLoop=1;jettySize=auto;html=1;entryX=0.5;entryY=0;entryDx=0;entryDy=0;exitX=0.5;exitY=1;exitDx=0;exitDy=0;" edge="1" parent="1" source="WxOcd5TwtlpuZQIKpukj-120" target="WxOcd5TwtlpuZQIKpukj-122">
          <mxGeometry relative="1" as="geometry" />
        </mxCell>
        <mxCell id="WxOcd5TwtlpuZQIKpukj-127" style="rounded=0;orthogonalLoop=1;jettySize=auto;html=1;entryX=0.5;entryY=0;entryDx=0;entryDy=0;exitX=0.5;exitY=1;exitDx=0;exitDy=0;" edge="1" parent="1" source="WxOcd5TwtlpuZQIKpukj-125" target="WxOcd5TwtlpuZQIKpukj-122">
          <mxGeometry relative="1" as="geometry" />
        </mxCell>
        <mxCell id="WxOcd5TwtlpuZQIKpukj-128" value="Business System" style="swimlane;whiteSpace=wrap;html=1;fillColor=#fff2cc;gradientColor=#ffd966;strokeColor=#d6b656;" vertex="1" parent="1">
          <mxGeometry x="1233.5" y="1120" width="200" height="160" as="geometry" />
        </mxCell>
        <mxCell id="WxOcd5TwtlpuZQIKpukj-129" value="B-Item&lt;br&gt;Data: 200M&lt;br&gt;Id：B-881&lt;br&gt;Institution：Glo" style="rounded=0;whiteSpace=wrap;html=1;fillColor=#fff2cc;gradientColor=#ffd966;strokeColor=#d6b656;" vertex="1" parent="WxOcd5TwtlpuZQIKpukj-128">
          <mxGeometry x="40" y="60" width="120" height="60" as="geometry" />
        </mxCell>
        <mxCell id="WxOcd5TwtlpuZQIKpukj-130" value="Item Center" style="swimlane;whiteSpace=wrap;html=1;fillColor=#d5e8d4;gradientColor=#97d077;strokeColor=#82b366;" vertex="1" parent="1">
          <mxGeometry x="1150" y="1320" width="367" height="280" as="geometry" />
        </mxCell>
        <mxCell id="WxOcd5TwtlpuZQIKpukj-131" style="edgeStyle=orthogonalEdgeStyle;rounded=0;orthogonalLoop=1;jettySize=auto;html=1;entryX=0.5;entryY=0;entryDx=0;entryDy=0;" edge="1" parent="WxOcd5TwtlpuZQIKpukj-130" source="WxOcd5TwtlpuZQIKpukj-133" target="WxOcd5TwtlpuZQIKpukj-134">
          <mxGeometry relative="1" as="geometry" />
        </mxCell>
        <mxCell id="WxOcd5TwtlpuZQIKpukj-133" value="S-Item&lt;br&gt;id: S-222&lt;br&gt;Data: 100M&lt;br&gt;institution: Glo" style="rounded=0;whiteSpace=wrap;html=1;fillColor=#d5e8d4;gradientColor=#97d077;strokeColor=#82b366;" vertex="1" parent="WxOcd5TwtlpuZQIKpukj-130">
          <mxGeometry x="40" y="40" width="120" height="60" as="geometry" />
        </mxCell>
        <mxCell id="WxOcd5TwtlpuZQIKpukj-134" value="C-Item&lt;br&gt;iid: C-114&lt;br&gt;channel：Glo Bucket&lt;br&gt;channel param:{&lt;br&gt;planid:xxxx,&lt;br&gt;bucketId:abc&lt;br&gt;}" style="rounded=0;whiteSpace=wrap;html=1;fillColor=#d5e8d4;strokeColor=#82b366;" vertex="1" parent="WxOcd5TwtlpuZQIKpukj-130">
          <mxGeometry x="40" y="160" width="120" height="100" as="geometry" />
        </mxCell>
        <mxCell id="WxOcd5TwtlpuZQIKpukj-135" value="C-Item&lt;br&gt;iid: C-115&lt;br&gt;channel：Glo&lt;br&gt;channel param:{&lt;br&gt;..&lt;br&gt;}" style="rounded=0;whiteSpace=wrap;html=1;fillColor=#d5e8d4;strokeColor=#82b366;" vertex="1" parent="WxOcd5TwtlpuZQIKpukj-130">
          <mxGeometry x="207" y="160" width="120" height="100" as="geometry" />
        </mxCell>
        <mxCell id="WxOcd5TwtlpuZQIKpukj-145" style="edgeStyle=orthogonalEdgeStyle;rounded=0;orthogonalLoop=1;jettySize=auto;html=1;entryX=0.5;entryY=0;entryDx=0;entryDy=0;" edge="1" parent="WxOcd5TwtlpuZQIKpukj-130" source="WxOcd5TwtlpuZQIKpukj-141" target="WxOcd5TwtlpuZQIKpukj-135">
          <mxGeometry relative="1" as="geometry" />
        </mxCell>
        <mxCell id="WxOcd5TwtlpuZQIKpukj-141" value="S-Item&lt;br&gt;id: S-223&lt;br&gt;Data: 100M&lt;br&gt;institution: Glo" style="rounded=0;whiteSpace=wrap;html=1;fillColor=#d5e8d4;gradientColor=#97d077;strokeColor=#82b366;" vertex="1" parent="WxOcd5TwtlpuZQIKpukj-130">
          <mxGeometry x="206" y="40" width="120" height="60" as="geometry" />
        </mxCell>
        <mxCell id="WxOcd5TwtlpuZQIKpukj-136" value="Channel" style="swimlane;whiteSpace=wrap;html=1;fillColor=#e6d0de;gradientColor=#d5739d;strokeColor=#996185;" vertex="1" parent="1">
          <mxGeometry x="1150" y="1640" width="367" height="200" as="geometry" />
        </mxCell>
        <mxCell id="WxOcd5TwtlpuZQIKpukj-137" value="channel&lt;br&gt;name: Glo Bucket" style="rounded=0;whiteSpace=wrap;html=1;fillColor=#e6d0de;gradientColor=#d5739d;strokeColor=#996185;" vertex="1" parent="WxOcd5TwtlpuZQIKpukj-136">
          <mxGeometry x="40" y="84" width="120" height="60" as="geometry" />
        </mxCell>
        <mxCell id="WxOcd5TwtlpuZQIKpukj-143" value="channel&lt;br&gt;name: Glo" style="rounded=0;whiteSpace=wrap;html=1;fillColor=#e6d0de;gradientColor=#d5739d;strokeColor=#996185;" vertex="1" parent="WxOcd5TwtlpuZQIKpukj-136">
          <mxGeometry x="207" y="84" width="120" height="60" as="geometry" />
        </mxCell>
        <mxCell id="WxOcd5TwtlpuZQIKpukj-138" style="edgeStyle=orthogonalEdgeStyle;rounded=0;orthogonalLoop=1;jettySize=auto;html=1;entryX=0.5;entryY=0;entryDx=0;entryDy=0;" edge="1" parent="1" source="WxOcd5TwtlpuZQIKpukj-129" target="WxOcd5TwtlpuZQIKpukj-133">
          <mxGeometry relative="1" as="geometry" />
        </mxCell>
        <mxCell id="WxOcd5TwtlpuZQIKpukj-139" style="rounded=0;orthogonalLoop=1;jettySize=auto;html=1;entryX=0.5;entryY=0;entryDx=0;entryDy=0;exitX=0.5;exitY=1;exitDx=0;exitDy=0;" edge="1" parent="1" source="WxOcd5TwtlpuZQIKpukj-134" target="WxOcd5TwtlpuZQIKpukj-137">
          <mxGeometry relative="1" as="geometry" />
        </mxCell>
        <mxCell id="WxOcd5TwtlpuZQIKpukj-144" style="edgeStyle=orthogonalEdgeStyle;rounded=0;orthogonalLoop=1;jettySize=auto;html=1;entryX=0.5;entryY=0;entryDx=0;entryDy=0;" edge="1" parent="1" source="WxOcd5TwtlpuZQIKpukj-129" target="WxOcd5TwtlpuZQIKpukj-141">
          <mxGeometry relative="1" as="geometry" />
        </mxCell>
        <mxCell id="WxOcd5TwtlpuZQIKpukj-146" style="edgeStyle=orthogonalEdgeStyle;rounded=0;orthogonalLoop=1;jettySize=auto;html=1;entryX=0.5;entryY=0;entryDx=0;entryDy=0;" edge="1" parent="1" source="WxOcd5TwtlpuZQIKpukj-135" target="WxOcd5TwtlpuZQIKpukj-143">
          <mxGeometry relative="1" as="geometry" />
        </mxCell>
        <mxCell id="WxOcd5TwtlpuZQIKpukj-148" value="1:1:1" style="text;html=1;strokeColor=none;fillColor=none;align=center;verticalAlign=middle;whiteSpace=wrap;rounded=0;fontStyle=1;fontSize=25;" vertex="1" parent="1">
          <mxGeometry x="70" y="1070" width="60" height="30" as="geometry" />
        </mxCell>
        <mxCell id="WxOcd5TwtlpuZQIKpukj-149" value="1:1:N" style="text;html=1;strokeColor=none;fillColor=none;align=center;verticalAlign=middle;whiteSpace=wrap;rounded=0;fontSize=25;fontStyle=1" vertex="1" parent="1">
          <mxGeometry x="466.5" y="1070" width="60" height="30" as="geometry" />
        </mxCell>
        <mxCell id="WxOcd5TwtlpuZQIKpukj-150" value="1:N:N" style="text;html=1;strokeColor=none;fillColor=none;align=center;verticalAlign=middle;whiteSpace=wrap;rounded=0;fontSize=25;fontStyle=1" vertex="1" parent="1">
          <mxGeometry x="1303.5" y="1070" width="60" height="30" as="geometry" />
        </mxCell>
        <mxCell id="WxOcd5TwtlpuZQIKpukj-152" value="&lt;h1&gt;Principles&lt;/h1&gt;&lt;p style=&quot;font-size: 16px;&quot;&gt;&lt;font style=&quot;font-size: 16px;&quot;&gt;1. 1 Business Item 1 Business Order&lt;/font&gt;&lt;/p&gt;&lt;p style=&quot;font-size: 16px;&quot;&gt;&lt;font style=&quot;font-size: 16px;&quot;&gt;2.1 Standard Item 1 Route Order&lt;/font&gt;&lt;/p&gt;&lt;p style=&quot;font-size: 16px;&quot;&gt;&lt;font style=&quot;font-size: 16px;&quot;&gt;3. 1 Channel Item (allow the times) 1 Channel Order&lt;/font&gt;&lt;/p&gt;&lt;p style=&quot;font-size: 16px;&quot;&gt;&lt;font style=&quot;font-size: 16px;&quot;&gt;* Business system should implement the splitting order featue. Treat the pay-route system as a larger channel.&lt;/font&gt;&lt;/p&gt;" style="text;html=1;strokeColor=none;fillColor=none;spacing=5;spacingTop=-20;whiteSpace=wrap;overflow=hidden;rounded=0;" vertex="1" parent="1">
          <mxGeometry x="2660" y="-80" width="420" height="220" as="geometry" />
        </mxCell>
        <mxCell id="WxOcd5TwtlpuZQIKpukj-170" value="Business System" style="swimlane;whiteSpace=wrap;html=1;fillColor=#fff2cc;gradientColor=#ffd966;strokeColor=#d6b656;" vertex="1" parent="1">
          <mxGeometry x="816.5" y="1120" width="200" height="160" as="geometry" />
        </mxCell>
        <mxCell id="WxOcd5TwtlpuZQIKpukj-171" value="B-Item&lt;br&gt;Data: 100M&lt;br&gt;Id：B-881&lt;br&gt;Institution：MTN" style="rounded=0;whiteSpace=wrap;html=1;fillColor=#fff2cc;gradientColor=#ffd966;strokeColor=#d6b656;" vertex="1" parent="WxOcd5TwtlpuZQIKpukj-170">
          <mxGeometry x="40" y="60" width="120" height="60" as="geometry" />
        </mxCell>
        <mxCell id="WxOcd5TwtlpuZQIKpukj-172" value="Item Center" style="swimlane;whiteSpace=wrap;html=1;fillColor=#d5e8d4;gradientColor=#97d077;strokeColor=#82b366;" vertex="1" parent="1">
          <mxGeometry x="733" y="1320" width="367" height="280" as="geometry" />
        </mxCell>
        <mxCell id="WxOcd5TwtlpuZQIKpukj-173" style="edgeStyle=orthogonalEdgeStyle;rounded=0;orthogonalLoop=1;jettySize=auto;html=1;entryX=0.5;entryY=0;entryDx=0;entryDy=0;" edge="1" parent="WxOcd5TwtlpuZQIKpukj-172" source="WxOcd5TwtlpuZQIKpukj-175" target="WxOcd5TwtlpuZQIKpukj-176">
          <mxGeometry relative="1" as="geometry" />
        </mxCell>
        <mxCell id="WxOcd5TwtlpuZQIKpukj-174" style="edgeStyle=orthogonalEdgeStyle;rounded=0;orthogonalLoop=1;jettySize=auto;html=1;entryX=0.5;entryY=0;entryDx=0;entryDy=0;" edge="1" parent="WxOcd5TwtlpuZQIKpukj-172" source="WxOcd5TwtlpuZQIKpukj-175" target="WxOcd5TwtlpuZQIKpukj-177">
          <mxGeometry relative="1" as="geometry" />
        </mxCell>
        <mxCell id="WxOcd5TwtlpuZQIKpukj-175" value="S-Item&lt;br&gt;id: S-221&lt;br&gt;Data: 100M&lt;br&gt;institution: MTN" style="rounded=0;whiteSpace=wrap;html=1;fillColor=#d5e8d4;gradientColor=#97d077;strokeColor=#82b366;" vertex="1" parent="WxOcd5TwtlpuZQIKpukj-172">
          <mxGeometry x="123.5" y="40" width="120" height="60" as="geometry" />
        </mxCell>
        <mxCell id="WxOcd5TwtlpuZQIKpukj-176" value="C-Item&lt;br&gt;iid: C-116&lt;br&gt;channel：MTN&lt;br&gt;channel param:{&lt;br&gt;planid:xxxx,&lt;br&gt;bucketId:abc&lt;br&gt;}" style="rounded=0;whiteSpace=wrap;html=1;fillColor=#d5e8d4;strokeColor=#82b366;" vertex="1" parent="WxOcd5TwtlpuZQIKpukj-172">
          <mxGeometry x="40" y="160" width="120" height="100" as="geometry" />
        </mxCell>
        <mxCell id="WxOcd5TwtlpuZQIKpukj-177" value="C-Item&lt;br&gt;iid: C-117&lt;br&gt;channel：Mobifin&lt;br&gt;channel param:{&lt;br&gt;..&lt;br&gt;}" style="rounded=0;whiteSpace=wrap;html=1;fillColor=#d5e8d4;strokeColor=#82b366;" vertex="1" parent="WxOcd5TwtlpuZQIKpukj-172">
          <mxGeometry x="207" y="160" width="120" height="100" as="geometry" />
        </mxCell>
        <mxCell id="WxOcd5TwtlpuZQIKpukj-178" value="Channel" style="swimlane;whiteSpace=wrap;html=1;fillColor=#e6d0de;gradientColor=#d5739d;strokeColor=#996185;" vertex="1" parent="1">
          <mxGeometry x="733" y="1640" width="367" height="200" as="geometry" />
        </mxCell>
        <mxCell id="WxOcd5TwtlpuZQIKpukj-179" value="channel&lt;br&gt;name: MTN" style="rounded=0;whiteSpace=wrap;html=1;fillColor=#e6d0de;gradientColor=#d5739d;strokeColor=#996185;" vertex="1" parent="WxOcd5TwtlpuZQIKpukj-178">
          <mxGeometry x="40" y="84" width="120" height="60" as="geometry" />
        </mxCell>
        <mxCell id="WxOcd5TwtlpuZQIKpukj-184" value="channel&lt;br&gt;name: Mobifin" style="rounded=0;whiteSpace=wrap;html=1;fillColor=#e6d0de;gradientColor=#d5739d;strokeColor=#996185;" vertex="1" parent="WxOcd5TwtlpuZQIKpukj-178">
          <mxGeometry x="207" y="84" width="120" height="60" as="geometry" />
        </mxCell>
        <mxCell id="WxOcd5TwtlpuZQIKpukj-180" style="edgeStyle=orthogonalEdgeStyle;rounded=0;orthogonalLoop=1;jettySize=auto;html=1;entryX=0.5;entryY=0;entryDx=0;entryDy=0;" edge="1" parent="1" source="WxOcd5TwtlpuZQIKpukj-171" target="WxOcd5TwtlpuZQIKpukj-175">
          <mxGeometry relative="1" as="geometry" />
        </mxCell>
        <mxCell id="WxOcd5TwtlpuZQIKpukj-181" style="rounded=0;orthogonalLoop=1;jettySize=auto;html=1;entryX=0.5;entryY=0;entryDx=0;entryDy=0;exitX=0.5;exitY=1;exitDx=0;exitDy=0;" edge="1" parent="1" source="WxOcd5TwtlpuZQIKpukj-176" target="WxOcd5TwtlpuZQIKpukj-179">
          <mxGeometry relative="1" as="geometry" />
        </mxCell>
        <mxCell id="WxOcd5TwtlpuZQIKpukj-183" value="1:1:N" style="text;html=1;strokeColor=none;fillColor=none;align=center;verticalAlign=middle;whiteSpace=wrap;rounded=0;fontSize=25;fontStyle=1" vertex="1" parent="1">
          <mxGeometry x="886.5" y="1070" width="60" height="30" as="geometry" />
        </mxCell>
        <mxCell id="WxOcd5TwtlpuZQIKpukj-185" style="edgeStyle=orthogonalEdgeStyle;rounded=0;orthogonalLoop=1;jettySize=auto;html=1;entryX=0.5;entryY=0;entryDx=0;entryDy=0;" edge="1" parent="1" source="WxOcd5TwtlpuZQIKpukj-177" target="WxOcd5TwtlpuZQIKpukj-184">
          <mxGeometry relative="1" as="geometry" />
        </mxCell>
      </root>
    </mxGraphModel>
  </diagram>
</mxfile>
